<?xml version="1.0" standalone="no"?>
<!DOCTYPE svg PUBLIC "-//W3C//DTD SVG 20010904//EN"
 "http://www.w3.org/TR/2001/REC-SVG-20010904/DTD/svg10.dtd">
<svg version="1.0" xmlns="http://www.w3.org/2000/svg"
 width="273.000000pt" height="274.000000pt" viewBox="0 0 273.000000 274.000000"
 preserveAspectRatio="xMidYMid meet">
<metadata>
Created by potrace 1.15, written by Peter Selinger 2001-2017
</metadata>
<g transform="translate(0.000000,274.000000) scale(0.100000,-0.100000)"
fill="#000000" stroke="none">
<path d="M1160 2704 c-188 -34 -372 -101 -508 -186 -403 -252 -642 -679 -642
-1148 0 -498 266 -944 710 -1188 140 -78 343 -137 521 -153 711 -62 1353 450
1449 1158 16 113 8 359 -14 457 -104 463 -416 824 -854 988 -154 58 -226 70
-437 73 -110 2 -211 1 -225 -1z m396 -489 c113 -33 188 -113 218 -231 20 -79
21 -263 1 -398 -55 -375 -57 -512 -10 -844 4 -25 0 -44 -10 -57 -15 -19 -31
-20 -388 -25 l-372 -5 -38 -60 c-21 -33 -55 -89 -76 -125 -64 -107 -151 -152
-235 -120 -50 19 -72 110 -41 170 20 39 85 87 176 133 127 63 125 60 140 279
20 286 -4 441 -115 742 -60 163 -59 242 3 279 50 30 96 22 145 -23 23 -22 51
-58 61 -80 20 -44 35 -52 35 -19 0 12 9 54 21 93 45 151 118 245 223 285 63
25 190 28 262 6z"/>
<path d="M900 651 c-14 -10 -62 -38 -108 -61 -95 -50 -128 -77 -138 -115 -10
-39 10 -75 41 -75 32 0 74 21 101 52 17 18 137 219 131 218 -1 0 -13 -9 -27
-19z"/>
</g>
</svg>
